<svg xmlns="http://www.w3.org/2000/svg" width="164.52" height="317.907" viewBox="0 0 123.39 238.43" class="displayed_equation">
  <defs>
    <clipPath id="svg878187867275tikz_00001a">
      <path d="M 43 181 L 65.84375 181 L 65.84375 190 L 43 190 Z M 43 181" />
    </clipPath>
    <clipPath id="svg878187867275tikz_00001b">
      <path d="M 43 163 L 65.84375 163 L 65.84375 173 L 43 173 Z M 43 163" />
    </clipPath>
    <clipPath id="svg878187867275tikz_00001c">
      <path d="M 43 146 L 65.84375 146 L 65.84375 155 L 43 155 Z M 43 146" />
    </clipPath>
    <clipPath id="svg878187867275tikz_00001d">
      <path d="M 43 128 L 65.84375 128 L 65.84375 137 L 43 137 Z M 43 128" />
    </clipPath>
    <clipPath id="svg878187867275tikz_00001e">
      <path d="M 43 110 L 65.84375 110 L 65.84375 120 L 43 120 Z M 43 110" />
    </clipPath>
    <clipPath id="svg878187867275tikz_00001f">
      <path d="M 43 93 L 65.84375 93 L 65.84375 102 L 43 102 Z M 43 93" />
    </clipPath>
    <clipPath id="svg878187867275tikz_00001g">
      <path d="M 43 75 L 65.84375 75 L 65.84375 84 L 43 84 Z M 43 75" />
    </clipPath>
    <clipPath id="svg878187867275tikz_00001h">
      <path d="M 32 26.75 L 47 26.75 L 47 194 L 32 194 Z M 32 26.75" />
    </clipPath>
    <clipPath id="svg878187867275tikz_00001i">
      <path d="M 24.683594 192 L 55 192 L 55 221.539063 L 24.683594 221.539063 Z M 24.683594 192" />
    </clipPath>
  </defs>
  <g clip-path="url(#svg878187867275tikz_00001a)">
    <path d="M 657.265625 526.01875 L 479.765625 526.01875 C 479.335938 526.01875 479.023438 526.33125 479.023438 526.721875 C 479.023438 527.1125 479.335938 527.425 479.765625 527.425 L 657.265625 527.425 C 657.65625 527.425 657.96875 527.1125 657.96875 526.721875 C 657.96875 526.33125 657.65625 526.01875 657.265625 526.01875 Z M 657.265625 526.01875" transform="matrix(.1 0 0 -.1 0 238.43)" fill="none" stroke-width="2.897" stroke="#000" stroke-miterlimit="10" />
  </g>
  <g clip-path="url(#svg878187867275tikz_00001b)">
    <path d="M 657.265625 702.971875 L 479.765625 702.971875 C 479.335938 702.971875 479.023438 703.323438 479.023438 703.714063 C 479.023438 704.104688 479.335938 704.45625 479.765625 704.45625 L 657.265625 704.45625 C 657.65625 704.45625 657.96875 704.104688 657.96875 703.714063 C 657.96875 703.323438 657.65625 702.971875 657.265625 702.971875 Z M 657.265625 702.971875" transform="matrix(.1 0 0 -.1 0 238.43)" fill="none" stroke-width="2.897" stroke="#000" stroke-miterlimit="10" />
  </g>
  <g clip-path="url(#svg878187867275tikz_00001c)">
    <path d="M 657.265625 879.964063 L 479.765625 879.964063 C 479.335938 879.964063 479.023438 880.315625 479.023438 880.70625 C 479.023438 881.096875 479.335938 881.448438 479.765625 881.448438 L 657.265625 881.448438 C 657.65625 881.448438 657.96875 881.096875 657.96875 880.70625 C 657.96875 880.315625 657.65625 879.964063 657.265625 879.964063 Z M 657.265625 879.964063" transform="matrix(.1 0 0 -.1 0 238.43)" fill="none" stroke-width="2.897" stroke="#000" stroke-miterlimit="10" />
  </g>
  <g clip-path="url(#svg878187867275tikz_00001d)">
    <path d="M 657.265625 1056.995313 L 479.765625 1056.995313 C 479.335938 1056.995313 479.023438 1057.307813 479.023438 1057.698438 C 479.023438 1058.089063 479.335938 1058.401563 479.765625 1058.401563 L 657.265625 1058.401563 C 657.65625 1058.401563 657.96875 1058.089063 657.96875 1057.698438 C 657.96875 1057.307813 657.65625 1056.995313 657.265625 1056.995313 Z M 657.265625 1056.995313" transform="matrix(.1 0 0 -.1 0 238.43)" fill="none" stroke-width="2.897" stroke="#000" stroke-miterlimit="10" />
  </g>
  <g clip-path="url(#svg878187867275tikz_00001e)">
    <path d="M 657.265625 1233.948438 L 479.765625 1233.948438 C 479.335938 1233.948438 479.023438 1234.3 479.023438 1234.690625 C 479.023438 1235.08125 479.335938 1235.39375 479.765625 1235.39375 L 657.265625 1235.39375 C 657.65625 1235.39375 657.96875 1235.08125 657.96875 1234.690625 C 657.96875 1234.3 657.65625 1233.948438 657.265625 1233.948438 Z M 657.265625 1233.948438" transform="matrix(.1 0 0 -.1 0 238.43)" fill="none" stroke-width="2.897" stroke="#000" stroke-miterlimit="10" />
  </g>
  <g clip-path="url(#svg878187867275tikz_00001f)">
    <path d="M 657.265625 1410.940625 L 479.765625 1410.940625 C 479.335938 1410.940625 479.023438 1411.292188 479.023438 1411.682813 C 479.023438 1412.073438 479.335938 1412.425 479.765625 1412.425 L 657.265625 1412.425 C 657.65625 1412.425 657.96875 1412.073438 657.96875 1411.682813 C 657.96875 1411.292188 657.65625 1410.940625 657.265625 1410.940625 Z M 657.265625 1410.940625" transform="matrix(.1 0 0 -.1 0 238.43)" fill="none" stroke-width="2.897" stroke="#000" stroke-miterlimit="10" />
  </g>
  <g clip-path="url(#svg878187867275tikz_00001g)">
    <path d="M 657.265625 1587.971875 L 479.765625 1587.971875 C 479.335938 1587.971875 479.023438 1588.284375 479.023438 1588.675 C 479.023438 1589.065625 479.335938 1589.378125 479.765625 1589.378125 L 657.265625 1589.378125 C 657.65625 1589.378125 657.96875 1589.065625 657.96875 1588.675 C 657.96875 1588.284375 657.65625 1587.971875 657.265625 1587.971875 Z M 657.265625 1587.971875" transform="matrix(.1 0 0 -.1 0 238.43)" fill="none" stroke-width="2.897" stroke="#000" stroke-miterlimit="10" />
  </g>
  <path d="M603.984375 614.495313L479.765625 614.495313C479.335938 614.495313 479.023438 614.807813 479.023438 615.198438 479.023438 615.628125 479.335938 615.940625 479.765625 615.940625L603.984375 615.940625C604.414063 615.940625 604.726563 615.628125 604.726563 615.198438 604.726563 614.807813 604.414063 614.495313 603.984375 614.495313zM603.984375 791.4875L479.765625 791.4875C479.335938 791.4875 479.023438 791.8 479.023438 792.229688 479.023438 792.620313 479.335938 792.932813 479.765625 792.932813L603.984375 792.932813C604.414063 792.932813 604.726563 792.620313 604.726563 792.229688 604.726563 791.8 604.414063 791.4875 603.984375 791.4875zM603.984375 968.479688L479.765625 968.479688C479.335938 968.479688 479.023438 968.792188 479.023438 969.221875 479.023438 969.6125 479.335938 969.925 479.765625 969.925L603.984375 969.925C604.414063 969.925 604.726563 969.6125 604.726563 969.221875 604.726563 968.792188 604.414063 968.479688 603.984375 968.479688zM603.984375 1145.471875L479.765625 1145.471875C479.335938 1145.471875 479.023438 1145.784375 479.023438 1146.175 479.023438 1146.604688 479.335938 1146.917188 479.765625 1146.917188L603.984375 1146.917188C604.414063 1146.917188 604.726563 1146.604688 604.726563 1146.175 604.726563 1145.784375 604.414063 1145.471875 603.984375 1145.471875zM603.984375 1322.464063L479.765625 1322.464063C479.335938 1322.464063 479.023438 1322.776563 479.023438 1323.20625 479.023438 1323.596875 479.335938 1323.909375 479.765625 1323.909375L603.984375 1323.909375C604.414063 1323.909375 604.726563 1323.596875 604.726563 1323.20625 604.726563 1322.776563 604.414063 1322.464063 603.984375 1322.464063zM603.984375 1499.45625L479.765625 1499.45625C479.335938 1499.45625 479.023438 1499.76875 479.023438 1500.198438 479.023438 1500.589063 479.335938 1500.901563 479.765625 1500.901563L603.984375 1500.901563C604.414063 1500.901563 604.726563 1500.589063 604.726563 1500.198438 604.726563 1499.76875 604.414063 1499.45625 603.984375 1499.45625zM550.742188 543.714063L479.765625 543.714063C479.335938 543.714063 479.023438 544.026563 479.023438 544.417188 479.023438 544.807813 479.335938 545.159375 479.765625 545.159375L550.742188 545.159375C551.171875 545.159375 551.484375 544.807813 551.484375 544.417188 551.484375 544.026563 551.171875 543.714063 550.742188 543.714063zM550.742188 561.409375L479.765625 561.409375C479.335938 561.409375 479.023438 561.721875 479.023438 562.1125 479.023438 562.503125 479.335938 562.854688 479.765625 562.854688L550.742188 562.854688C551.171875 562.854688 551.484375 562.503125 551.484375 562.1125 551.484375 561.721875 551.171875 561.409375 550.742188 561.409375zM550.742188 579.104688L479.765625 579.104688C479.335938 579.104688 479.023438 579.417188 479.023438 579.807813 479.023438 580.2375 479.335938 580.55 479.765625 580.55L550.742188 580.55C551.171875 580.55 551.484375 580.2375 551.484375 579.807813 551.484375 579.417188 551.171875 579.104688 550.742188 579.104688zM550.742188 596.8L479.765625 596.8C479.335938 596.8 479.023438 597.1125 479.023438 597.503125 479.023438 597.932813 479.335938 598.245313 479.765625 598.245313L550.742188 598.245313C551.171875 598.245313 551.484375 597.932813 551.484375 597.503125 551.484375 597.1125 551.171875 596.8 550.742188 596.8zM550.742188 632.190625L479.765625 632.190625C479.335938 632.190625 479.023438 632.503125 479.023438 632.932813 479.023438 633.323438 479.335938 633.635938 479.765625 633.635938L550.742188 633.635938C551.171875 633.635938 551.484375 633.323438 551.484375 632.932813 551.484375 632.503125 551.171875 632.190625 550.742188 632.190625zM550.742188 649.885938L479.765625 649.885938C479.335938 649.885938 479.023438 650.198438 479.023438 650.628125 479.023438 651.01875 479.335938 651.33125 479.765625 651.33125L550.742188 651.33125C551.171875 651.33125 551.484375 651.01875 551.484375 650.628125 551.484375 650.198438 551.171875 649.885938 550.742188 649.885938zM550.742188 667.58125L479.765625 667.58125C479.335938 667.58125 479.023438 667.932813 479.023438 668.323438 479.023438 668.714063 479.335938 669.026563 479.765625 669.026563L550.742188 669.026563C551.171875 669.026563 551.484375 668.714063 551.484375 668.323438 551.484375 667.932813 551.171875 667.58125 550.742188 667.58125zM550.742188 685.276563L479.765625 685.276563C479.335938 685.276563 479.023438 685.628125 479.023438 686.01875 479.023438 686.409375 479.335938 686.760938 479.765625 686.760938L550.742188 686.760938C551.171875 686.760938 551.484375 686.409375 551.484375 686.01875 551.484375 685.628125 551.171875 685.276563 550.742188 685.276563zM550.742188 720.70625L479.765625 720.70625C479.335938 720.70625 479.023438 721.01875 479.023438 721.409375 479.023438 721.8 479.335938 722.151563 479.765625 722.151563L550.742188 722.151563C551.171875 722.151563 551.484375 721.8 551.484375 721.409375 551.484375 721.01875 551.171875 720.70625 550.742188 720.70625zM550.742188 738.401563L479.765625 738.401563C479.335938 738.401563 479.023438 738.714063 479.023438 739.104688 479.023438 739.534375 479.335938 739.846875 479.765625 739.846875L550.742188 739.846875C551.171875 739.846875 551.484375 739.534375 551.484375 739.104688 551.484375 738.714063 551.171875 738.401563 550.742188 738.401563zM550.742188 756.096875L479.765625 756.096875C479.335938 756.096875 479.023438 756.409375 479.023438 756.8 479.023438 757.229688 479.335938 757.542188 479.765625 757.542188L550.742188 757.542188C551.171875 757.542188 551.484375 757.229688 551.484375 756.8 551.484375 756.409375 551.171875 756.096875 550.742188 756.096875zM550.742188 773.792188L479.765625 773.792188C479.335938 773.792188 479.023438 774.104688 479.023438 774.495313 479.023438 774.925 479.335938 775.2375 479.765625 775.2375L550.742188 775.2375C551.171875 775.2375 551.484375 774.925 551.484375 774.495313 551.484375 774.104688 551.171875 773.792188 550.742188 773.792188zM550.742188 809.182813L479.765625 809.182813C479.335938 809.182813 479.023438 809.495313 479.023438 809.925 479.023438 810.315625 479.335938 810.628125 479.765625 810.628125L550.742188 810.628125C551.171875 810.628125 551.484375 810.315625 551.484375 809.925 551.484375 809.495313 551.171875 809.182813 550.742188 809.182813zM550.742188 826.878125L479.765625 826.878125C479.335938 826.878125 479.023438 827.190625 479.023438 827.620313 479.023438 828.010938 479.335938 828.323438 479.765625 828.323438L550.742188 828.323438C551.171875 828.323438 551.484375 828.010938 551.484375 827.620313 551.484375 827.190625 551.171875 826.878125 550.742188 826.878125zM550.742188 844.573438L479.765625 844.573438C479.335938 844.573438 479.023438 844.925 479.023438 845.315625 479.023438 845.70625 479.335938 846.01875 479.765625 846.01875L550.742188 846.01875C551.171875 846.01875 551.484375 845.70625 551.484375 845.315625 551.484375 844.925 551.171875 844.573438 550.742188 844.573438zM550.742188 862.26875L479.765625 862.26875C479.335938 862.26875 479.023438 862.620313 479.023438 863.010938 479.023438 863.401563 479.335938 863.753125 479.765625 863.753125L550.742188 863.753125C551.171875 863.753125 551.484375 863.401563 551.484375 863.010938 551.484375 862.620313 551.171875 862.26875 550.742188 862.26875zM550.742188 897.698438L479.765625 897.698438C479.335938 897.698438 479.023438 898.010938 479.023438 898.401563 479.023438 898.792188 479.335938 899.14375 479.765625 899.14375L550.742188 899.14375C551.171875 899.14375 551.484375 898.792188 551.484375 898.401563 551.484375 898.010938 551.171875 897.698438 550.742188 897.698438zM550.742188 915.39375L479.765625 915.39375C479.335938 915.39375 479.023438 915.70625 479.023438 916.096875 479.023438 916.4875 479.335938 916.839063 479.765625 916.839063L550.742188 916.839063C551.171875 916.839063 551.484375 916.4875 551.484375 916.096875 551.484375 915.70625 551.171875 915.39375 550.742188 915.39375zM550.742188 933.089063L479.765625 933.089063C479.335938 933.089063 479.023438 933.401563 479.023438 933.792188 479.023438 934.221875 479.335938 934.534375 479.765625 934.534375L550.742188 934.534375C551.171875 934.534375 551.484375 934.221875 551.484375 933.792188 551.484375 933.401563 551.171875 933.089063 550.742188 933.089063zM550.742188 950.784375L479.765625 950.784375C479.335938 950.784375 479.023438 951.096875 479.023438 951.526563 479.023438 951.917188 479.335938 952.229688 479.765625 952.229688L550.742188 952.229688C551.171875 952.229688 551.484375 951.917188 551.484375 951.526563 551.484375 951.096875 551.171875 950.784375 550.742188 950.784375zM550.742188 986.175L479.765625 986.175C479.335938 986.175 479.023438 986.4875 479.023438 986.917188 479.023438 987.307813 479.335938 987.620313 479.765625 987.620313L550.742188 987.620313C551.171875 987.620313 551.484375 987.307813 551.484375 986.917188 551.484375 986.4875 551.171875 986.175 550.742188 986.175zM550.742188 1003.870313L479.765625 1003.870313C479.335938 1003.870313 479.023438 1004.182813 479.023438 1004.6125 479.023438 1005.003125 479.335938 1005.315625 479.765625 1005.315625L550.742188 1005.315625C551.171875 1005.315625 551.484375 1005.003125 551.484375 1004.6125 551.484375 1004.182813 551.171875 1003.870313 550.742188 1003.870313zM550.742188 1021.565625L479.765625 1021.565625C479.335938 1021.565625 479.023438 1021.917188 479.023438 1022.307813 479.023438 1022.698438 479.335938 1023.010938 479.765625 1023.010938L550.742188 1023.010938C551.171875 1023.010938 551.484375 1022.698438 551.484375 1022.307813 551.484375 1021.917188 551.171875 1021.565625 550.742188 1021.565625zM550.742188 1039.260938L479.765625 1039.260938C479.335938 1039.260938 479.023438 1039.6125 479.023438 1040.003125 479.023438 1040.39375 479.335938 1040.70625 479.765625 1040.70625L550.742188 1040.70625C551.171875 1040.70625 551.484375 1040.39375 551.484375 1040.003125 551.484375 1039.6125 551.171875 1039.260938 550.742188 1039.260938zM550.742188 1074.690625L479.765625 1074.690625C479.335938 1074.690625 479.023438 1075.003125 479.023438 1075.39375 479.023438 1075.784375 479.335938 1076.096875 479.765625 1076.096875L550.742188 1076.096875C551.171875 1076.096875 551.484375 1075.784375 551.484375 1075.39375 551.484375 1075.003125 551.171875 1074.690625 550.742188 1074.690625zM550.742188 1092.385938L479.765625 1092.385938C479.335938 1092.385938 479.023438 1092.698438 479.023438 1093.089063 479.023438 1093.51875 479.335938 1093.83125 479.765625 1093.83125L550.742188 1093.83125C551.171875 1093.83125 551.484375 1093.51875 551.484375 1093.089063 551.484375 1092.698438 551.171875 1092.385938 550.742188 1092.385938zM550.742188 1110.08125L479.765625 1110.08125C479.335938 1110.08125 479.023438 1110.39375 479.023438 1110.784375 479.023438 1111.175 479.335938 1111.526563 479.765625 1111.526563L550.742188 1111.526563C551.171875 1111.526563 551.484375 1111.175 551.484375 1110.784375 551.484375 1110.39375 551.171875 1110.08125 550.742188 1110.08125zM550.742188 1127.776563L479.765625 1127.776563C479.335938 1127.776563 479.023438 1128.089063 479.023438 1128.479688 479.023438 1128.909375 479.335938 1129.221875 479.765625 1129.221875L550.742188 1129.221875C551.171875 1129.221875 551.484375 1128.909375 551.484375 1128.479688 551.484375 1128.089063 551.171875 1127.776563 550.742188 1127.776563zM550.742188 1163.167188L479.765625 1163.167188C479.335938 1163.167188 479.023438 1163.479688 479.023438 1163.909375 479.023438 1164.3 479.335938 1164.6125 479.765625 1164.6125L550.742188 1164.6125C551.171875 1164.6125 551.484375 1164.3 551.484375 1163.909375 551.484375 1163.479688 551.171875 1163.167188 550.742188 1163.167188zM550.742188 1180.8625L479.765625 1180.8625C479.335938 1180.8625 479.023438 1181.175 479.023438 1181.604688 479.023438 1181.995313 479.335938 1182.307813 479.765625 1182.307813L550.742188 1182.307813C551.171875 1182.307813 551.484375 1181.995313 551.484375 1181.604688 551.484375 1181.175 551.171875 1180.8625 550.742188 1180.8625zM550.742188 1198.557813L479.765625 1198.557813C479.335938 1198.557813 479.023438 1198.909375 479.023438 1199.3 479.023438 1199.690625 479.335938 1200.003125 479.765625 1200.003125L550.742188 1200.003125C551.171875 1200.003125 551.484375 1199.690625 551.484375 1199.3 551.484375 1198.909375 551.171875 1198.557813 550.742188 1198.557813zM550.742188 1216.253125L479.765625 1216.253125C479.335938 1216.253125 479.023438 1216.604688 479.023438 1216.995313 479.023438 1217.385938 479.335938 1217.698438 479.765625 1217.698438L550.742188 1217.698438C551.171875 1217.698438 551.484375 1217.385938 551.484375 1216.995313 551.484375 1216.604688 551.171875 1216.253125 550.742188 1216.253125zM550.742188 1251.682813L479.765625 1251.682813C479.335938 1251.682813 479.023438 1251.995313 479.023438 1252.385938 479.023438 1252.776563 479.335938 1253.128125 479.765625 1253.128125L550.742188 1253.128125C551.171875 1253.128125 551.484375 1252.776563 551.484375 1252.385938 551.484375 1251.995313 551.171875 1251.682813 550.742188 1251.682813zM550.742188 1269.378125L479.765625 1269.378125C479.335938 1269.378125 479.023438 1269.690625 479.023438 1270.08125 479.023438 1270.471875 479.335938 1270.823438 479.765625 1270.823438L550.742188 1270.823438C551.171875 1270.823438 551.484375 1270.471875 551.484375 1270.08125 551.484375 1269.690625 551.171875 1269.378125 550.742188 1269.378125zM550.742188 1287.073438L479.765625 1287.073438C479.335938 1287.073438 479.023438 1287.385938 479.023438 1287.776563 479.023438 1288.20625 479.335938 1288.51875 479.765625 1288.51875L550.742188 1288.51875C551.171875 1288.51875 551.484375 1288.20625 551.484375 1287.776563 551.484375 1287.385938 551.171875 1287.073438 550.742188 1287.073438zM550.742188 1304.76875L479.765625 1304.76875C479.335938 1304.76875 479.023438 1305.08125 479.023438 1305.471875 479.023438 1305.8625 479.335938 1306.214063 479.765625 1306.214063L550.742188 1306.214063C551.171875 1306.214063 551.484375 1305.8625 551.484375 1305.471875 551.484375 1305.08125 551.171875 1304.76875 550.742188 1304.76875zM550.742188 1340.159375L479.765625 1340.159375C479.335938 1340.159375 479.023438 1340.471875 479.023438 1340.8625 479.023438 1341.292188 479.335938 1341.604688 479.765625 1341.604688L550.742188 1341.604688C551.171875 1341.604688 551.484375 1341.292188 551.484375 1340.8625 551.484375 1340.471875 551.171875 1340.159375 550.742188 1340.159375zM550.742188 1357.854688L479.765625 1357.854688C479.335938 1357.854688 479.023438 1358.167188 479.023438 1358.596875 479.023438 1358.9875 479.335938 1359.3 479.765625 1359.3L550.742188 1359.3C551.171875 1359.3 551.484375 1358.9875 551.484375 1358.596875 551.484375 1358.167188 551.171875 1357.854688 550.742188 1357.854688zM550.742188 1375.55L479.765625 1375.55C479.335938 1375.55 479.023438 1375.8625 479.023438 1376.292188 479.023438 1376.682813 479.335938 1376.995313 479.765625 1376.995313L550.742188 1376.995313C551.171875 1376.995313 551.484375 1376.682813 551.484375 1376.292188 551.484375 1375.8625 551.171875 1375.55 550.742188 1375.55zM550.742188 1393.245313L479.765625 1393.245313C479.335938 1393.245313 479.023438 1393.596875 479.023438 1393.9875 479.023438 1394.378125 479.335938 1394.690625 479.765625 1394.690625L550.742188 1394.690625C551.171875 1394.690625 551.484375 1394.378125 551.484375 1393.9875 551.484375 1393.596875 551.171875 1393.245313 550.742188 1393.245313zM550.742188 1428.675L479.765625 1428.675C479.335938 1428.675 479.023438 1428.9875 479.023438 1429.378125 479.023438 1429.76875 479.335938 1430.120313 479.765625 1430.120313L550.742188 1430.120313C551.171875 1430.120313 551.484375 1429.76875 551.484375 1429.378125 551.484375 1428.9875 551.171875 1428.675 550.742188 1428.675zM550.742188 1446.33125L479.765625 1446.33125C479.335938 1446.33125 479.023438 1446.682813 479.023438 1447.073438 479.023438 1447.464063 479.335938 1447.815625 479.765625 1447.815625L550.742188 1447.815625C551.171875 1447.815625 551.484375 1447.464063 551.484375 1447.073438 551.484375 1446.682813 551.171875 1446.33125 550.742188 1446.33125zM550.742188 1464.065625L479.765625 1464.065625C479.335938 1464.065625 479.023438 1464.378125 479.023438 1464.76875 479.023438 1465.198438 479.335938 1465.510938 479.765625 1465.510938L550.742188 1465.510938C551.171875 1465.510938 551.484375 1465.198438 551.484375 1464.76875 551.484375 1464.378125 551.171875 1464.065625 550.742188 1464.065625zM550.742188 1481.760938L479.765625 1481.760938C479.335938 1481.760938 479.023438 1482.073438 479.023438 1482.464063 479.023438 1482.89375 479.335938 1483.20625 479.765625 1483.20625L550.742188 1483.20625C551.171875 1483.20625 551.484375 1482.89375 551.484375 1482.464063 551.484375 1482.073438 551.171875 1481.760938 550.742188 1481.760938zM550.742188 1517.151563L479.765625 1517.151563C479.335938 1517.151563 479.023438 1517.464063 479.023438 1517.89375 479.023438 1518.284375 479.335938 1518.596875 479.765625 1518.596875L550.742188 1518.596875C551.171875 1518.596875 551.484375 1518.284375 551.484375 1517.89375 551.484375 1517.464063 551.171875 1517.151563 550.742188 1517.151563zM550.742188 1534.846875L479.765625 1534.846875C479.335938 1534.846875 479.023438 1535.198438 479.023438 1535.589063 479.023438 1535.979688 479.335938 1536.292188 479.765625 1536.292188L550.742188 1536.292188C551.171875 1536.292188 551.484375 1535.979688 551.484375 1535.589063 551.484375 1535.198438 551.171875 1534.846875 550.742188 1534.846875zM550.742188 1552.542188L479.765625 1552.542188C479.335938 1552.542188 479.023438 1552.89375 479.023438 1553.284375 479.023438 1553.675 479.335938 1553.9875 479.765625 1553.9875L550.742188 1553.9875C551.171875 1553.9875 551.484375 1553.675 551.484375 1553.284375 551.484375 1552.89375 551.171875 1552.542188 550.742188 1552.542188zM550.742188 1570.276563L479.765625 1570.276563C479.335938 1570.276563 479.023438 1570.589063 479.023438 1570.979688 479.023438 1571.370313 479.335938 1571.682813 479.765625 1571.682813L550.742188 1571.682813C551.171875 1571.682813 551.484375 1571.370313 551.484375 1570.979688 551.484375 1570.589063 551.171875 1570.276563 550.742188 1570.276563zM550.742188 1570.276563" transform="matrix(.1 0 0 -.1 0 238.43)" fill="none" stroke-width="2.897" stroke="#000" stroke-miterlimit="10" />
  <path d="M 45.4375 192.675781 C 45.832031 192.839844 46.214844 193.015625 46.59375 193.210938 L 46.59375 193.839844 C 46.546875 193.796875 46.496094 193.757813 46.449219 193.71875 C 46.140625 193.441406 45.8125 193.1875 45.46875 192.957031 C 45.457031 192.949219 45.449219 192.945313 45.4375 192.9375 Z M 45.4375 192.675781" />
  <path d="M 29.941406 216.328125 C 27.328125 213.714844 25.886719 210.242188 25.886719 206.542969 C 25.886719 202.847656 27.328125 199.375 29.941406 196.761719 C 31.121094 195.582031 32.476563 194.640625 33.949219 193.964844 L 33.949219 194.066406 L 34.367188 194.066406 L 34.367188 192.441406 L 33.949219 192.441406 L 33.949219 192.699219 C 33.949219 192.703125 33.949219 192.703125 33.949219 192.703125 L 33.949219 33.375 C 33.949219 30.359375 36.402344 27.90625 39.414063 27.90625 L 39.96875 27.90625 C 42.984375 27.90625 45.4375 30.359375 45.4375 33.375 L 45.4375 193.933594 C 46.933594 194.613281 48.3125 195.5625 49.507813 196.761719 C 52.121094 199.375 53.5625 202.847656 53.5625 206.542969 C 53.5625 210.242188 52.121094 213.714844 49.507813 216.328125 C 46.894531 218.941406 43.421875 220.382813 39.726563 220.382813 C 36.03125 220.382813 32.554688 218.941406 29.941406 216.328125 Z M 29.941406 216.328125" fill="#fff" />
  <g clip-path="url(#svg878187867275tikz_00001h)">
    <path d="M 33.949219 192.703125 C 33.554688 192.867188 33.167969 193.046875 32.792969 193.242188 L 32.792969 33.375 C 32.792969 29.722656 35.761719 26.753906 39.414063 26.753906 L 39.96875 26.753906 C 43.621094 26.753906 46.59375 29.722656 46.59375 33.375 L 46.59375 193.210938 C 46.214844 193.015625 45.832031 192.839844 45.4375 192.675781 L 45.4375 33.375 C 45.4375 30.359375 42.984375 27.90625 39.96875 27.90625 L 39.414063 27.90625 C 36.402344 27.90625 33.949219 30.359375 33.949219 33.375 Z M 33.949219 192.703125" />
  </g>
  <g clip-path="url(#svg878187867275tikz_00001i)">
    <path d="M 29.941406 196.761719 C 27.328125 199.375 25.886719 202.847656 25.886719 206.542969 C 25.886719 210.242188 27.328125 213.714844 29.941406 216.328125 C 32.554688 218.941406 36.03125 220.382813 39.726563 220.382813 C 43.421875 220.382813 46.894531 218.941406 49.507813 216.328125 C 52.121094 213.714844 53.5625 210.242188 53.5625 206.542969 C 53.5625 202.847656 52.121094 199.375 49.507813 196.761719 C 48.3125 195.5625 46.933594 194.613281 45.4375 193.933594 L 45.4375 192.675781 L 45.4375 192.9375 C 45.449219 192.945313 45.457031 192.949219 45.46875 192.957031 C 45.8125 193.1875 46.140625 193.441406 46.449219 193.71875 C 46.496094 193.757813 46.546875 193.796875 46.59375 193.839844 L 46.59375 193.210938 C 47.953125 193.914063 49.210938 194.828125 50.328125 195.941406 C 53.15625 198.777344 54.71875 202.539063 54.71875 206.542969 C 54.71875 210.550781 53.15625 214.316406 50.328125 217.144531 C 47.496094 219.980469 43.730469 221.539063 39.726563 221.539063 C 35.71875 221.539063 31.957031 219.980469 29.125 217.144531 C 26.292969 214.316406 24.730469 210.550781 24.730469 206.542969 C 24.730469 202.539063 26.292969 198.777344 29.125 195.941406 C 30.21875 194.847656 31.457031 193.941406 32.792969 193.242188 L 32.792969 194.308594 C 33.152344 194.066406 33.539063 193.855469 33.949219 193.691406 L 33.949219 192.703125 C 33.949219 192.703125 33.949219 192.703125 33.949219 192.699219 L 33.949219 193.964844 C 32.476563 194.640625 31.121094 195.582031 29.941406 196.761719 Z M 29.941406 196.761719" />
  </g>
  <path d="M 32.792969 193.242188 C 33.167969 193.046875 33.554688 192.867188 33.949219 192.703125 L 33.949219 193.691406 C 33.539063 193.855469 33.152344 194.066406 32.792969 194.308594 Z M 32.792969 193.242188" />
  <path d="M 39.644531 199.34375 C 37.640625 199.34375 36 197.703125 36 195.699219 L 36 35.867188 C 36 33.863281 37.640625 32.222656 39.644531 32.222656 C 41.648438 32.222656 43.289063 33.863281 43.289063 35.867188 L 43.289063 195.699219 C 43.289063 197.703125 41.648438 199.34375 39.644531 199.34375 Z M 39.644531 199.34375" fill="#e6edf4" />
  <path d="M 51.371094 206.507813 C 51.371094 212.925781 46.167969 218.132813 39.746094 218.132813 C 33.328125 218.132813 28.121094 212.925781 28.121094 206.507813 C 28.121094 200.085938 33.328125 194.882813 39.746094 194.882813 C 46.167969 194.882813 51.371094 200.085938 51.371094 206.507813 Z M 51.371094 206.507813" fill="#e22727" />
  <path d="M 36.054688 196.5 L 43.296875 196.5 L 43.296875 132.589844 L 36.054688 132.589844 Z M 36.054688 196.5" fill="#e22727" />
  <path d="M 43.035156 195.019531 L 43.035156 195.503906 C 47.742188 196.910156 51.183594 201.28125 51.183594 206.441406 C 51.183594 212.734375 46.0625 217.855469 39.769531 217.855469 C 33.472656 217.855469 28.351563 212.734375 28.351563 206.441406 C 28.351563 201.367188 31.683594 197.054688 36.273438 195.574219 L 36.273438 195.089844 C 31.425781 196.585938 27.890625 201.109375 27.890625 206.441406 C 27.890625 212.992188 33.21875 218.316406 39.769531 218.316406 C 46.316406 218.316406 51.644531 212.992188 51.644531 206.441406 C 51.644531 201.023438 48 196.441406 43.035156 195.019531 Z M 43.035156 195.019531" />
  <path d="M 39.652344 31.953125 C 37.53125 31.953125 35.808594 33.679688 35.808594 35.800781 L 35.808594 195.628906 C 35.859375 195.605469 35.914063 195.582031 35.96875 195.558594 C 36.066406 195.503906 36.164063 195.457031 36.269531 195.417969 L 36.269531 35.800781 C 36.269531 33.933594 37.785156 32.417969 39.652344 32.417969 C 41.515625 32.417969 43.035156 33.933594 43.035156 35.800781 L 43.035156 195.285156 C 43.195313 195.300781 43.347656 195.335938 43.496094 195.394531 L 43.496094 35.800781 C 43.496094 33.679688 41.773438 31.953125 39.652344 31.953125 Z M 39.652344 31.953125" />
  <path d="M69.191406 186.320313L75.839844 186.320313 75.839844 185.5625 69.191406 185.5625zM81.777344 187.046875L81.453125 187.046875C81.195313 187.714844 81.050781 187.949219 80.460938 187.949219L78.910156 187.949219 78.128906 187.980469 78.128906 187.925781 79.601563 186.53125C80.785156 185.335938 81.417969 184.570313 81.417969 183.574219 81.417969 182.402344 80.539063 181.644531 79.277344 181.644531 78.195313 181.644531 77.4375 182.269531 77.089844 183.351563L77.359375 183.464844C77.773438 182.625 78.261719 182.371094 78.988281 182.371094 79.847656 182.371094 80.382813 182.90625 80.382813 183.742188 80.382813 184.914063 79.824219 185.617188 78.71875 186.753906L77.023438 188.449219 77.023438 188.828125 81.417969 188.828125 81.777344 187.046875M87.421875 185.292969C87.421875 182.996094 86.417969 181.667969 84.976563 181.667969 83.359375 181.667969 82.5 183.140625 82.5 185.257813 82.5 187.234375 83.160156 188.953125 84.957031 188.953125 86.707031 188.953125 87.421875 187.203125 87.421875 185.292969zM86.339844 185.359375C86.339844 187.5 85.835938 188.550781 84.957031 188.550781 84.0625 188.550781 83.570313 187.480469 83.570313 185.316406 83.570313 183.105469 84.0625 182.046875 84.945313 182.046875 85.859375 182.046875 86.339844 183.09375 86.339844 185.359375" fill="#55a4e0" />
  <path d="M69.191406 168.21875L75.839844 168.21875 75.839844 167.460938 69.191406 167.460938zM81.351563 170.730469L81.351563 170.417969C80.328125 170.417969 79.914063 170.21875 79.914063 169.671875L79.914063 163.601563 79.589844 163.601563 77.425781 164.214844 77.425781 164.582031C77.773438 164.46875 78.339844 164.40625 78.5625 164.40625 78.84375 164.40625 78.929688 164.5625 78.929688 164.949219L78.929688 169.671875C78.929688 170.226563 78.539063 170.417969 77.492188 170.417969L77.492188 170.730469 81.351563 170.730469M87.421875 167.195313C87.421875 164.894531 86.417969 163.566406 84.976563 163.566406 83.359375 163.566406 82.5 165.039063 82.5 167.160156 82.5 169.132813 83.160156 170.851563 84.957031 170.851563 86.707031 170.851563 87.421875 169.101563 87.421875 167.195313zM86.339844 167.257813C86.339844 169.402344 85.835938 170.449219 84.957031 170.449219 84.0625 170.449219 83.570313 169.378906 83.570313 167.214844 83.570313 165.007813 84.0625 163.945313 84.945313 163.945313 85.859375 163.945313 86.339844 164.996094 86.339844 167.257813" />
  <path d="M 77.320313 149.492188 C 77.320313 147.195313 76.316406 145.867188 74.878906 145.867188 C 73.261719 145.867188 72.402344 147.339844 72.402344 149.460938 C 72.402344 151.433594 73.058594 153.152344 74.855469 153.152344 C 76.609375 153.152344 77.320313 151.402344 77.320313 149.492188 Z M 76.238281 149.558594 C 76.238281 151.703125 75.738281 152.75 74.855469 152.75 C 73.960938 152.75 73.472656 151.679688 73.472656 149.515625 C 73.472656 147.304688 73.960938 146.246094 74.84375 146.246094 C 75.757813 146.246094 76.238281 147.296875 76.238281 149.558594" fill="#109e24" />
  <path d="M74.054688 135.929688L74.054688 135.617188C73.027344 135.617188 72.613281 135.417969 72.613281 134.871094L72.613281 128.800781 72.289063 128.800781 70.125 129.414063 70.125 129.78125C70.472656 129.671875 71.039063 129.605469 71.265625 129.605469 71.542969 129.605469 71.632813 129.761719 71.632813 130.148438L71.632813 134.871094C71.632813 135.429688 71.242188 135.617188 70.191406 135.617188L70.191406 135.929688 74.054688 135.929688M80.023438 132.394531C80.023438 130.097656 79.015625 128.765625 77.578125 128.765625 75.960938 128.765625 75.101563 130.242188 75.101563 132.359375 75.101563 134.335938 75.757813 136.054688 77.554688 136.054688 79.308594 136.054688 80.023438 134.300781 80.023438 132.394531zM78.9375 132.460938C78.9375 134.601563 78.4375 135.648438 77.554688 135.648438 76.664063 135.648438 76.171875 134.578125 76.171875 132.414063 76.171875 130.207031 76.664063 129.148438 77.542969 129.148438 78.460938 129.148438 78.9375 130.195313 78.9375 132.460938M74.476563 116.347656L74.152344 116.347656C73.898438 117.015625 73.75 117.25 73.160156 117.25L71.609375 117.25 70.828125 117.28125 70.828125 117.226563 72.300781 115.832031C73.484375 114.636719 74.117188 113.867188 74.117188 112.875 74.117188 111.703125 73.238281 110.945313 71.976563 110.945313 70.894531 110.945313 70.136719 111.570313 69.789063 112.652344L70.058594 112.765625C70.472656 111.925781 70.960938 111.671875 71.6875 111.671875 72.546875 111.671875 73.082031 112.207031 73.082031 113.042969 73.082031 114.214844 72.523438 114.917969 71.421875 116.054688L69.722656 117.75 69.722656 118.128906 74.117188 118.128906 74.476563 116.347656M80.023438 114.59375C80.023438 112.296875 79.015625 110.96875 77.578125 110.96875 75.960938 110.96875 75.101563 112.441406 75.101563 114.558594 75.101563 116.535156 75.757813 118.253906 77.554688 118.253906 79.308594 118.253906 80.023438 116.503906 80.023438 114.59375zM78.9375 114.660156C78.9375 116.800781 78.4375 117.851563 77.554688 117.851563 76.664063 117.851563 76.171875 116.78125 76.171875 114.617188 76.171875 112.40625 76.664063 111.347656 77.542969 111.347656 78.460938 111.347656 78.9375 112.394531 78.9375 114.660156M70.257813 94.875C70.640625 94.28125 71.050781 93.972656 71.71875 93.972656 72.414063 93.972656 72.859375 94.351563 72.859375 95.007813 72.859375 95.910156 72.066406 96.523438 71.308594 96.523438L71.097656 96.523438 71.097656 96.949219 71.320313 96.949219C72.390625 96.949219 73.339844 97.609375 73.339844 98.601563 73.339844 99.695313 72.65625 100.015625 71.953125 100.015625 71.6875 100.015625 71.53125 99.972656 71.050781 99.726563 70.660156 99.527344 70.570313 99.472656 70.394531 99.472656 70.101563 99.472656 69.957031 99.726563 69.957031 99.960938 69.957031 100.253906 70.203125 100.574219 71.207031 100.574219 72.835938 100.574219 74.253906 99.792969 74.253906 98.265625 74.253906 97.273438 73.507813 96.683594 72.613281 96.402344L72.613281 96.367188C73.316406 95.921875 73.820313 95.511719 73.820313 94.742188 73.820313 93.890625 73.160156 93.246094 72.023438 93.246094 71.109375 93.246094 70.414063 93.757813 70.003906 94.726563L70.257813 94.875M80.023438 96.894531C80.023438 94.597656 79.015625 93.265625 77.578125 93.265625 75.960938 93.265625 75.101563 94.742188 75.101563 96.859375 75.101563 98.835938 75.757813 100.554688 77.554688 100.554688 79.308594 100.554688 80.023438 98.800781 80.023438 96.894531zM78.9375 96.960938C78.9375 99.101563 78.4375 100.148438 77.554688 100.148438 76.664063 100.148438 76.171875 99.078125 76.171875 96.914063 76.171875 94.707031 76.664063 93.648438 77.542969 93.648438 78.460938 93.648438 78.9375 94.695313 78.9375 96.960938" />
  <path d="M74.664063 81.566406L74.664063 80.796875 73.527344 80.796875 73.527344 76.136719 72.847656 76.136719 69.445313 80.863281 69.445313 81.566406 72.535156 81.566406 72.535156 83.328125 73.527344 83.328125 73.527344 81.566406zM72.535156 80.796875L70.058594 80.796875 70.058594 80.753906 72.492188 77.351563 72.535156 77.351563 72.535156 80.796875M80.023438 79.792969C80.023438 77.496094 79.015625 76.167969 77.578125 76.167969 75.960938 76.167969 75.101563 77.640625 75.101563 79.761719 75.101563 81.734375 75.757813 83.453125 77.554688 83.453125 79.308594 83.453125 80.023438 81.703125 80.023438 79.792969zM78.9375 79.859375C78.9375 82.003906 78.4375 83.050781 77.554688 83.050781 76.664063 83.050781 76.171875 81.980469 76.171875 79.816406 76.171875 77.605469 76.664063 76.546875 77.542969 76.546875 78.460938 76.546875 78.9375 77.597656 78.9375 79.859375" fill="#e14b3b" />
  <path d="M62.316406 203.917969C62.316406 203.09375 61.707031 202.59375 60.992188 202.59375 60.242188 202.59375 59.679688 203.101563 59.679688 203.917969 59.679688 204.730469 60.21875 205.226563 60.992188 205.226563 61.761719 205.226563 62.316406 204.730469 62.316406 203.917969zM61.800781 203.917969C61.800781 204.480469 61.453125 204.785156 60.992188 204.785156 60.539063 204.785156 60.195313 204.472656 60.195313 203.917969 60.195313 203.359375 60.554688 203.039063 60.992188 203.039063 61.453125 203.039063 61.800781 203.351563 61.800781 203.917969M69.984375 208.367188C69.359375 209.046875 68.609375 209.449219 67.585938 209.449219 66.011719 209.449219 64.917969 208.492188 64.917969 206.257813 64.917969 204.273438 65.820313 203.046875 67.429688 203.046875 68.578125 203.046875 69.367188 203.660156 69.617188 205.121094L69.992188 205.121094 69.992188 202.566406 69.660156 202.566406C69.523438 202.789063 69.460938 202.96875 69.28125 202.96875 69 202.96875 68.589844 202.566406 67.417969 202.566406 65.273438 202.566406 63.757813 203.9375 63.757813 206.371094 63.757813 208.546875 64.960938 210.152344 67.261719 210.152344 68.722656 210.152344 69.648438 209.503906 70.25 208.601563L69.984375 208.367188M41.667969 19.386719C41.667969 18.382813 40.929688 17.773438 40.054688 17.773438 39.148438 17.773438 38.464844 18.390625 38.464844 19.386719 38.464844 20.371094 39.117188 20.976563 40.054688 20.976563 40.992188 20.976563 41.667969 20.371094 41.667969 19.386719zM41.042969 19.386719C41.042969 20.066406 40.617188 20.4375 40.054688 20.4375 39.507813 20.4375 39.089844 20.058594 39.089844 19.386719 39.089844 18.703125 39.523438 18.3125 40.054688 18.3125 40.617188 18.3125 41.042969 18.695313 41.042969 19.386719" />
  <path d="M 123.984375 173.792188 L 123.984375 2210.471875 C 123.984375 2237.971875 146.289063 2260.276563 173.789063 2260.276563 L 1060.15625 2260.276563 C 1087.65625 2260.276563 1109.960938 2237.971875 1109.960938 2210.471875 L 1109.960938 173.792188 C 1109.960938 146.292188 1087.65625 123.9875 1060.15625 123.9875 L 173.789063 123.9875 C 146.289063 123.9875 123.984375 146.292188 123.984375 173.792188 Z M 123.984375 173.792188" transform="matrix(.1 0 0 -.1 0 238.43)" fill="none" stroke-width="7.97" stroke-linejoin="round" stroke="#000" stroke-miterlimit="10" />
</svg>